<svg xmlns="http://www.w3.org/2000/svg" xmlns:xlink="http://www.w3.org/1999/xlink" width="44" height="30" viewBox="0 0 44 30"><defs><path id="a" d="M947.66 7675.9a9.59 9.59 0 0 1 9.61 9.55c0 5.27-4.3 9.55-9.61 9.55a9.59 9.59 0 0 1-9.62-9.55l-.04-1.36a19.16 19.16 0 0 1 19.23-19.09v5.45a13.72 13.72 0 0 0-11.08 5.57c.5-.07 1-.12 1.5-.12zm24.72 0a9.59 9.59 0 0 1 9.62 9.55c0 5.27-4.3 9.55-9.62 9.55a9.59 9.59 0 0 1-9.61-9.55l-.04-1.36a19.16 19.16 0 0 1 19.23-19.09v5.45a13.72 13.72 0 0 0-11.08 5.57c.49-.07 1-.12 1.5-.12z"/></defs><desc>Generated with Avocode.</desc><g transform="translate(-938 -7665)"><use fill="#18cfab" xlink:href="#a"/></g></svg>