<svg xmlns="http://www.w3.org/2000/svg" xmlns:xlink="http://www.w3.org/1999/xlink" width="28" height="36" viewBox="0 0 28 36"><defs><path id="a" d="M713.59 6256.8c0-4.86 1.09-8.81 7.4-8.81 6.33 0 7.42 3.95 7.42 8.81s-3.32 8.8-7.41 8.8c-4.1 0-7.41-3.94-7.41-8.8zm-6.59 22.24c0-.08 0-.29 0 0zm28 .23c0-.56 0-.08 0 0zm0 0v.66s-2.07 4.06-14 4.06c-11.94 0-14-4.06-14-4.06v-.89c0 .08.01.05.02-.63.16-8.25 1.36-10.62 9.92-12.13 0 0 1.22 1.52 4.06 1.52s4.06-1.52 4.06-1.52c8.65 1.52 9.78 3.93 9.92 12.41 0 .54.01.63.02.58z"/></defs><desc>Generated with Avocode.</desc><g transform="translate(-707 -6248)"><use fill="#fff" xlink:href="#a"/></g></svg>