<svg xmlns="http://www.w3.org/2000/svg" xmlns:xlink="http://www.w3.org/1999/xlink" width="37" height="31" viewBox="0 0 37 31"><defs><path id="a" d="M240.5 6270.85c-1 0-1.81-.83-1.81-1.85v-.84c0-1.02.8-1.85 1.81-1.85 1 0 1.81.83 1.81 1.85v.84c0 1.02-.8 1.85-1.81 1.85zm3.06-.82h12.5c.78 0 1.53-.19 2.2-.52v8.48c0 1.65-1.33 3-2.95 3H225.7a2.98 2.98 0 0 1-2.95-3v-8.48c.67.33 1.42.52 2.2.52h12.5a3.22 3.22 0 0 0 3.06 2.33c1.44 0 2.66-.99 3.06-2.33zm15.44-12.21v6.94a2.97 2.97 0 0 1-2.95 3.01H243.7a3.28 3.28 0 0 0-.98-2.2l-.06-.05a3.38 3.38 0 0 0-.4-.33l-.17-.09-.37-.2-.31-.1-.27-.08a2.67 2.67 0 0 0-1.28 0l-.27.08-.31.1-.37.2c-.05.03-.11.05-.16.09-.15.1-.28.21-.41.33l-.06.05a3.29 3.29 0 0 0-.98 2.2h-12.35a2.98 2.98 0 0 1-2.95-3.01v-6.94a3.05 3.05 0 0 1 3.07-3.01h7.07a5.65 5.65 0 0 1 5.53-4.82h5.66c2.8 0 5.1 2.1 5.53 4.82h7.07a3.05 3.05 0 0 1 3.07 3.01zm-12.97-3.01a2.85 2.85 0 0 0-2.7-2h-5.66c-1.26 0-2.32.84-2.7 2z"/></defs><desc>Generated with Avocode.</desc><g transform="translate(-222 -6250)"><use fill="#fff" xlink:href="#a"/></g></svg>