<svg xmlns="http://www.w3.org/2000/svg" xmlns:xlink="http://www.w3.org/1999/xlink" width="35" height="35" viewBox="0 0 35 35"><defs><path id="a" d="M1197 6279.5c0 1.92-1.58 3.5-3.5 3.5a3.5 3.5 0 1 1 3.5-3.5zm-8.23-31.5l1.58 3.5h25.9c1.05 0 1.75.7 1.75 1.75 0 .35 0 .52-.35.87l-6.3 11.38a3.2 3.2 0 0 1-2.98 1.75h-12.95l-1.57 2.97v.18c0 .17.17.35.35.35h20.3v3.5h-21a3.51 3.51 0 0 1-3.5-3.5c0-.53.17-1.23.35-1.75l2.45-4.2-6.3-13.3h-3.5v-3.5zm25.73 31.5c0 1.92-1.58 3.5-3.5 3.5a3.5 3.5 0 1 1 3.5-3.5z"/></defs><desc>Generated with Avocode.</desc><g transform="translate(-1183 -6248)"><use fill="#fff" xlink:href="#a"/></g></svg>