<svg xmlns="http://www.w3.org/2000/svg" xmlns:xlink="http://www.w3.org/1999/xlink" width="99" height="76" viewBox="0 0 99 76"><defs><path id="a" d="M1631 1135.98h38.8V1193H1631zm22.09 52.32c0-1-.84-1.83-1.87-1.83-1.04 0-1.87.83-1.87 1.83 0 1.01.83 1.84 1.87 1.84 1.03 0 1.87-.83 1.87-1.84zm-16.48-4.76h27.58v-42.07h-27.58zm13.58-50h-5.48V1117h73.13v30.08h-5.48v-24.72h-62.17zm22.12 30.71v-5.37h28.82v5.37zm57.69-15.09v42.95h-26.06v-42.95zm-13.08 2.4c0 .34.28.62.63.62s.63-.28.63-.62a.63.63 0 0 0-.63-.62.62.62 0 0 0-.63.62zm-3.12 2.03h7.5v-.59h-7.5zm5.01 35.19c0-.82-.68-1.47-1.51-1.47s-1.5.66-1.5 1.47c0 .81.68 1.47 1.5 1.47a1.5 1.5 0 0 0 1.51-1.47zm7.01-33.08h-17.7v29.53c3.36.03 10.93 0 17.7-.03zm-24.71 10.74v7.61h-28.81v-2.94h19.31v-1.42h-19.31v-3.25z"/></defs><desc>Generated with Avocode.</desc><g transform="translate(-1631 -1117)"><use fill="#fff" xlink:href="#a"/></g></svg>