<svg xmlns="http://www.w3.org/2000/svg" xmlns:xlink="http://www.w3.org/1999/xlink" width="27" height="22" viewBox="0 0 27 22"><defs><path id="a" d="M1219.71 2021.57v.71a.8.8 0 0 1-.8.81h-8.49a.8.8 0 0 1-.8-.81v-.71a2.55 2.55 0 0 1 2.54-2.56h.66c.34 0 .62-.28.62-.62a.48.48 0 0 0-.14-.34c-.38-.37-.7-.86-.93-1.4a.2.2 0 0 1-.13.04c-.37 0-.8-.82-.8-1.38 0-.56.05-1.01.42-1.01l.1.01c.03-1.52.31-3.41 2.71-3.41 2.3 0 2.68 1.9 2.7 3.41l.14-.01c.37 0 .42.45.42 1.01s-.43 1.38-.8 1.38c-.06 0-.11-.03-.16-.06a4.43 4.43 0 0 1-.93 1.42.48.48 0 0 0-.14.34c0 .34.27.62.61.62h.66a2.55 2.55 0 0 1 2.54 2.56zm5.67-8.99v.95a.6.6 0 0 1-.59.6h-6.35a.97.97 0 0 0-.36-.43 5.43 5.43 0 0 0-.41-1.72h7.12a.6.6 0 0 1 .59.6zm0 3.92v.95a.6.6 0 0 1-.59.6h-7.42v-.57l.06-.09c.57-.18.99-.85 1.16-1.49h6.2a.6.6 0 0 1 .59.6zm0 3.92v.95a.6.6 0 0 1-.59.6h-4.34v-.4c0-.64-.18-1.24-.5-1.75h4.84a.6.6 0 0 1 .59.6zm5.62-10.74v14.63a3.67 3.67 0 0 1-3.66 3.69h-19.68a3.67 3.67 0 0 1-3.66-3.69v-14.63a3.67 3.67 0 0 1 3.66-3.68h19.68a3.67 3.67 0 0 1 3.66 3.68zm-1.73 0c0-1.07-.86-1.94-1.93-1.94h-19.68c-1.07 0-1.93.87-1.93 1.94v14.63c0 1.08.86 1.95 1.93 1.95h19.68c1.07 0 1.93-.87 1.93-1.95z"/></defs><desc>Generated with Avocode.</desc><g transform="translate(-1204 -2006)"><use fill="#18cfab" xlink:href="#a"/></g></svg>