<svg xmlns="http://www.w3.org/2000/svg" xmlns:xlink="http://www.w3.org/1999/xlink" width="58" height="97" viewBox="0 0 58 97"><defs><path id="a" d="M227.42 1196.87h35.96v4.96c0 1.19-.96 2.17-2.14 2.17h-31.68a2.17 2.17 0 0 1-2.14-2.17zm-11.74-71.67a18.1 18.1 0 0 1 18-18.2c9.95 0 18.01 8.14 18.01 18.2 0 6.69-3.59 12.54-8.92 15.7a9529 9529 0 0 1-1.6-15.7 6.57 6.57 0 0 0-2.6-4.68 7.46 7.46 0 0 0-4.43-1.42c-2.1 0-4.1.8-5.49 2.21a6.83 6.83 0 0 0-1.94 4.82l-.01 15.85a18.2 18.2 0 0 1-11.02-16.78zm53.3 54.73c0 2.56-.69 5.08-1.98 7.28l-3.64 6.2H227.4c-10.01-10.25-15.1-21.17-15.86-25.87-.54-3.21 1.68-5.37 4.14-5.37 1.4 0 2.9.69 4.01 2.31l1.17 1.7c3.2 4.69 6.5 4.73 7.95 4.78h.03c.05 0 .1 0 .14-.02h.02c.52-.07.9-.5.9-1.02l.01-43.8c0-2.46 2.14-3.78 4.22-3.78 1.83 0 3.6 1.03 3.83 3.19l2.78 27.16v.01h.01a5.28 5.28 0 0 1 3.47-1.08c.54 0 1.1.05 1.66.16 1.84.37 13.84 4.28 19.79 6.24 1.99.65 3.33 2.52 3.33 4.64z"/></defs><desc>Generated with Avocode.</desc><g transform="translate(-211 -1107)"><use fill="#18cfab" xlink:href="#a"/></g></svg>