<svg xmlns="http://www.w3.org/2000/svg" xmlns:xlink="http://www.w3.org/1999/xlink" width="26" height="24" viewBox="0 0 26 24"><defs><path id="a" d="M820.16 2005.08a.59.59 0 0 1 .62.13c.17.16.22.39.14.61l-7.73 20.96a1.82 1.82 0 0 1-2.78.84l-7.22-5.21 16.6-16.21-18.77 14.64-5.29-3.81a1.61 1.61 0 0 1 .38-2.82zm-14.15 21.46c.05.07-1.81 1.28-3.24 2.19-.36.23-.8.27-1.2.1a1.26 1.26 0 0 1-.74-.92l-1.02-5.56-.04-.25z"/></defs><desc>Generated with Avocode.</desc><g transform="translate(-795 -2005)"><use fill="#18cfab" xlink:href="#a"/></g></svg>