<svg xmlns="http://www.w3.org/2000/svg" xmlns:xlink="http://www.w3.org/1999/xlink" width="60" height="96" viewBox="0 0 60 96"><defs><path id="a" d="M1218 1182a3 3 0 0 1-3 3h-30a3 3 0 1 1 0-6h30a3 3 0 0 1 3 3zm0 9a3 3 0 0 1-3 3h-30a3 3 0 1 1 0-6h30a3 3 0 0 1 3 3zm-30 6h24a6 6 0 0 1-6 6h-12a6 6 0 0 1-6-6zm42-60c0 16.31-9.83 18.21-11.68 36a3 3 0 0 1-3 3h-30.64a3 3 0 0 1-3-3h-.01c-1.84-17.79-11.67-19.69-11.67-36a30 30 0 1 1 60 0zm-17.85-9c-34.88 8.25-18 30-18 30 0-12 8.81-14.82 9-14.44-6.19 6-9 26.44-9 26.44h6v-12c17.06.94 12-27.94 12-30z"/></defs><desc>Generated with Avocode.</desc><g transform="translate(-1170 -1107)"><use fill="#18cfab" xlink:href="#a"/></g></svg>