<svg xmlns="http://www.w3.org/2000/svg" xmlns:xlink="http://www.w3.org/1999/xlink" width="20" height="35" viewBox="0 0 20 35"><defs><path id="a" d="M405.88 2026.61c0 .52-.42.95-.93.95h-9.9a.94.94 0 0 1-.93-.95c0-.52.42-.95.93-.95h9.9c.5 0 .93.43.93.95zm-.21 2.72c0 .52-.42.94-.93.94h-9.47a.93.93 0 0 1-.93-.94c0-.52.41-.94.92-.94h9.48c.5 0 .93.42.92.94zm-1.25 2.73c0 .52-.41.94-.93.94h-6.98a.94.94 0 0 1-.93-.94c0-.52.4-.94.92-.94h7c.51 0 .93.42.92.94zm5.58-23.1c0 2.82-.75 4.63-2.53 7.33-1.07 1.61-2.55 2.82-2.78 8.46h-9.38c-.23-5.64-1.71-6.86-2.78-8.47-1.78-2.69-2.53-4.49-2.53-7.31 0-6.06 4.4-10.97 9.84-10.97h.32c5.44 0 9.84 4.91 9.84 10.96zm-6.39 1.29a.3.3 0 0 0-.44 0l-3.17 3.3-3.17-3.3a.3.3 0 0 0-.44 0 .31.31 0 0 0-.01.44l3.32 3.46v8.09c0 .17.14.3.3.31.16-.01.3-.14.3-.31v-8.09l3.32-3.46a.31.31 0 0 0 0-.44z"/></defs><desc>Generated with Avocode.</desc><g transform="translate(-390 -1998)"><use fill="#18cfab" xlink:href="#a"/></g></svg>