<svg xmlns="http://www.w3.org/2000/svg" xmlns:xlink="http://www.w3.org/1999/xlink" width="25" height="34" viewBox="0 0 25 34"><defs><path id="a" d="M411.2 1626s-2.8 2.71-5.81 3.81c-22.39 8.1-12.95 23.89-12.64 23.94 0 0 1.25-2.19 2.95-3.43 10.76-7.92 12.95-17.03 12.95-17.03s-2.42 10.96-11.99 17.79c-2.12 1.5-3.55 5.21-4.15 8.92 0 0 1.5-.61 2.14-.77a12 12 0 0 1 1.67-4.62c13.37 1.59 17.76-9.2 18.33-12.96a23.25 23.25 0 0 0-3.45-15.65z"/></defs><desc>Generated with Avocode.</desc><g transform="translate(-390 -1626)"><use fill="#18cfab" xlink:href="#a"/></g></svg>