<svg xmlns="http://www.w3.org/2000/svg" xmlns:xlink="http://www.w3.org/1999/xlink" width="28" height="28" viewBox="0 0 28 28"><defs><path id="a" d="M1230.98 1656.98a2.58 2.58 0 0 1-3.67 0l-6.37-6.36a12.41 12.41 0 0 0 3.68-3.68l6.36 6.36a2.6 2.6 0 0 1 0 3.68zm-16.58-6.17a10.4 10.4 0 1 1 .01-20.81 10.4 10.4 0 0 1-.01 20.81zm7.81-10.41a7.81 7.81 0 1 0-15.62.02 7.81 7.81 0 0 0 15.62-.02zm-7.81-6.07v1.74a4.33 4.33 0 0 0-4.33 4.33h-1.73a6.08 6.08 0 0 1 6.06-6.07z"/></defs><desc>Generated with Avocode.</desc><g transform="translate(-1204 -1630)"><use fill="#18cfab" xlink:href="#a"/></g></svg>