<svg xmlns="http://www.w3.org/2000/svg" xmlns:xlink="http://www.w3.org/1999/xlink" width="43" height="38" viewBox="0 0 43 38"><defs><path id="a" d="M1669.38 6258.05c0-6.1 4.98-11.05 11.12-11.05 6.14 0 11.12 4.95 11.12 11.05 0 6.11-9.93 18.38-11.12 18.38-1.15 0-11.12-12.27-11.12-18.38zm11.12 6.76c3.97 0 7.19-3.2 7.19-7.14a7.16 7.16 0 0 0-7.19-7.14 7.16 7.16 0 0 0-7.19 7.14 7.17 7.17 0 0 0 7.19 7.14zm21.5 18.34c0 1.02-.83 1.85-1.86 1.85h-39.28a1.85 1.85 0 0 1-1.86-1.85l1.74-15.18c0-1.01.84-1.84 1.86-1.84h6.69c.24 0 .43-.03.56.2.35.59.22.44.56.98.28.46.03.55-.13.55h-7.68c-.06 0-.12.05-.12.11l-1.74 15.18c0 .06.06.12.12.12h39.28c.06 0 .12-.06.12-.12l-1.74-15.18c0-.06-.06-.11-.12-.11h-7.74c-.1 0-.34-.09-.18-.34l.66-1.1c.18-.3.34-.29.48-.29h6.78c1.02 0 1.86.83 1.86 1.84z"/></defs><desc>Generated with Avocode.</desc><g transform="translate(-1659 -6247)"><use fill="#fff" xlink:href="#a"/></g></svg>