<svg xmlns="http://www.w3.org/2000/svg" xmlns:xlink="http://www.w3.org/1999/xlink" width="19" height="19" viewBox="0 0 19 19"><defs><path id="a" d="M562.77 8858.76a5.04 5.04 0 0 1-7.67 4.29 8.33 8.33 0 0 1-9.52-9.53 5.04 5.04 0 0 1 6.92-6.93 8.32 8.32 0 0 1 9.52 9.53 5 5 0 0 1 .75 2.64zm-4.5-1.87a2.47 2.47 0 0 0-1.16-2.25 5.5 5.5 0 0 0-1.3-.61c-.52-.17-1.09-.32-1.72-.45l-1.08-.27a4.08 4.08 0 0 1-.64-.25 1.62 1.62 0 0 1-.5-.38.82.82 0 0 1-.17-.52c0-.32.17-.59.52-.83a2.5 2.5 0 0 1 1.4-.35c.62 0 1.07.11 1.35.32.28.22.52.52.72.91.16.27.3.47.45.6.14.13.35.19.61.19.3 0 .55-.11.74-.31.2-.21.3-.45.3-.7 0-.29-.08-.57-.23-.87-.16-.29-.4-.57-.74-.83a3.84 3.84 0 0 0-1.26-.64c-.5-.16-1.1-.24-1.79-.24-.86 0-1.62.12-2.26.36a3.2 3.2 0 0 0-1.47 1.04 2.5 2.5 0 0 0-.51 1.54c0 .61.16 1.12.48 1.53.33.41.76.73 1.3.97.55.23 1.23.44 2.03.61.6.13 1.08.25 1.44.36.35.12.64.28.86.49.22.21.33.47.33.81 0 .42-.2.77-.62 1.06-.4.28-.95.42-1.61.42-.49 0-.87-.07-1.17-.21-.3-.14-.52-.32-.68-.54a3.78 3.78 0 0 1-.46-.82 1.7 1.7 0 0 0-.43-.64.93.93 0 0 0-.63-.22c-.3 0-.56.09-.76.28-.2.19-.3.42-.3.68 0 .45.17.91.49 1.38.32.47.74.85 1.25 1.13.73.39 1.64.58 2.75.58.93 0 1.73-.14 2.4-.42.68-.29 1.2-.69 1.55-1.19.35-.51.53-1.08.53-1.72z"/></defs><desc>Generated with Avocode.</desc><g transform="translate(-544 -8845)"><use fill="#fff" xlink:href="#a"/></g></svg>