<svg xmlns="http://www.w3.org/2000/svg" xmlns:xlink="http://www.w3.org/1999/xlink" width="21" height="17" viewBox="0 0 21 17"><defs><path id="a" d="M497.06 8847.08c-.79.47-1.66.8-2.59.99a4.07 4.07 0 0 0-6.93 3.69 11.54 11.54 0 0 1-8.39-4.23 4.04 4.04 0 0 0 1.26 5.41c-.66-.02-1.29-.2-1.84-.51v.05c0 1.97 1.4 3.61 3.27 3.98a4.2 4.2 0 0 1-1.84.07 4.08 4.08 0 0 0 3.8 2.82 8.16 8.16 0 0 1-6.03 1.68 11.55 11.55 0 0 0 6.24 1.82c7.48 0 11.58-6.18 11.58-11.54l-.02-.53a8.08 8.08 0 0 0 2.04-2.1c-.73.33-1.52.55-2.34.64a4.05 4.05 0 0 0 1.79-2.24z"/></defs><desc>Generated with Avocode.</desc><g transform="translate(-477 -8846)"><use fill="#fff" xlink:href="#a"/></g></svg>