<svg xmlns="http://www.w3.org/2000/svg" xmlns:xlink="http://www.w3.org/1999/xlink" width="15" height="15" viewBox="0 0 15 15"><defs><path id="a" d="M515.9 3317.66l-2.01 2.01c-.81.81-2.11.8-2.92-.01l1.13-1.13c.35.09.8-.06 1.06-.33l1.29-1.28c.4-.4.4-1.06 0-1.46l-1.09-1.1a1.03 1.03 0 0 0-1.46-.01l-1.28 1.28c-.29.29-.43.7-.32 1.06l-1.15 1.13c-.8-.81-.8-2.12 0-2.93l2.03-2.01c.8-.8 2.11-.8 2.91.01l1.82 1.84c.8.81.8 2.12 0 2.93zm-6.21 3.29c.81.82.8 2.16-.01 2.98l-1.95 1.94a2.1 2.1 0 0 1-2.97-.01l-1.85-1.87a2.11 2.11 0 0 1 0-2.98l1.95-1.95a2.1 2.1 0 0 1 2.97.01l-1.15 1.18c-.37-.13-.79.02-1.08.31l-1.2 1.2c-.41.4-.41 1.08 0 1.49l1.1 1.12c.42.41 1.08.42 1.5.01l1.2-1.2c.27-.28.42-.73.33-1.09zm-2.42-.41l3.32-3.38a.68.68 0 0 1 1 .01c.27.28.27.73 0 1.01l-3.33 3.38a.7.7 0 0 1-1 0 .73.73 0 0 1 0-1.02z"/></defs><desc>Generated with Avocode.</desc><g transform="translate(-502 -3312)"><use fill="#1fdab5" xlink:href="#a"/></g></svg>