<svg xmlns="http://www.w3.org/2000/svg" xmlns:xlink="http://www.w3.org/1999/xlink" width="22" height="19" viewBox="0 0 22 19"><defs><path id="a" d="M627.48 8844.99c-3-.1-5.03 1.6-6.1 5.08a4.29 4.29 0 0 1 1.6-.34c1.1 0 1.58.62 1.46 1.85-.06.76-.55 1.85-1.45 3.28-.91 1.43-1.59 2.14-2.03 2.14-.59 0-1.12-1.1-1.6-3.32a75.7 75.7 0 0 1-.88-4.97c-.39-2.48-1.42-3.64-3.1-3.47-.7.06-1.77.72-3.18 1.95l-3.16 2.84 1.02 1.31a6.97 6.97 0 0 1 1.7-1.03c.74 0 1.43 1.18 2.08 3.52l1.74 6.45c.87 2.34 1.94 3.52 3.2 3.52 2.03 0 4.52-1.93 7.45-5.77 2.83-3.68 4.3-6.58 4.4-8.69.14-2.83-.91-4.28-3.15-4.35z"/></defs><desc>Generated with Avocode.</desc><g transform="translate(-609 -8845)"><use fill="#fff" xlink:href="#a"/></g></svg>