<svg xmlns="http://www.w3.org/2000/svg" xmlns:xlink="http://www.w3.org/1999/xlink" width="24" height="24" viewBox="0 0 24 24"><defs><path id="a" d="M1204.87 1835.16c-.87.88-.87 2.3 0 3.18a2.23 2.23 0 0 0 3.15 0l7.31-7.38-3.15-3.18zm18.28-13.68l3.18-1.66 1.67-3.25-1.55-1.57-3.23 1.68-1.65 3.21-3.87 3.92 1.57 1.59zm.7 8.53l-.31-.03c-.54 0-1.05.12-1.54.3l-9.14-9.23a4.5 4.5 0 0 0 .29-1.56l-.03-.3a4.46 4.46 0 0 0-4.42-4.19c-.69 0-1.33.17-1.91.45l2.96 2.98c.15.16.26.35.33.54.19.53.09 1.15-.33 1.58a1.44 1.44 0 0 1-1.57.34 1.38 1.38 0 0 1-.53-.34l-2.96-2.98a4.47 4.47 0 0 0 3.71 6.39l.3.03c.54 0 1.05-.11 1.54-.29l9.14 9.22a4.5 4.5 0 0 0-.29 1.56l.03.3a4.46 4.46 0 0 0 4.42 4.19c.69 0 1.33-.16 1.91-.44l-2.95-2.99a1.5 1.5 0 0 1 0-2.12 1.46 1.46 0 0 1 2.1 0l2.95 2.99a4.47 4.47 0 0 0-3.7-6.4z"/></defs><desc>Generated with Avocode.</desc><g transform="translate(-1204 -1815)"><use fill="#18cfab" xlink:href="#a"/></g></svg>